<svg width="46" height="47" viewBox="0 0 46 47" fill="none" xmlns="http://www.w3.org/2000/svg">
<path d="M44.1545 0C43.936 0 43.7118 0.04112 43.4876 0.135108L10.3487 13.7399H0.919885C0.413948 13.7399 0 14.1746 0 14.715V32.2791C0 32.8195 0.413948 33.2542 0.919885 33.2542H6.7669C6.55418 33.9356 6.4392 34.6582 6.4392 35.3925C6.4392 39.2636 9.53231 42.4122 13.3383 42.4122C16.5234 42.4122 19.2083 40.2035 20.0017 37.2193L43.4933 46.8649C43.7175 46.953 43.9418 47 44.1602 47C45.1319 47 46 46.1659 46 45.0497V1.95026C45.9943 0.834146 45.1319 0 44.1545 0ZM13.3383 38.2003C11.8148 38.2003 10.5787 36.9433 10.5787 35.3925C10.5787 34.7345 10.8029 34.106 11.2111 33.6067L16.0922 35.6098C15.9773 37.0549 14.7872 38.2003 13.3383 38.2003ZM41.8548 41.6309L11.8895 29.3302L11.1479 29.0247H4.13948V17.9694H11.1479L11.8895 17.6639L41.8548 5.3632V41.6309Z" fill="#7A1113"/>
</svg>
