<svg width="24" height="24" viewBox="0 0 24 24" fill="none" xmlns="http://www.w3.org/2000/svg">
<path d="M12.2274 1.92191C8.65314 1.91254 5.50783 3.76175 3.71018 6.5555C3.63049 6.67972 3.71955 6.84379 3.86721 6.84379H5.51486C5.62736 6.84379 5.73283 6.79457 5.80314 6.70785C5.96721 6.50863 6.14299 6.31644 6.32815 6.13363C7.09221 5.37191 7.98049 4.77191 8.96955 4.35472C9.99143 3.92347 11.0789 3.70316 12.2016 3.70316C13.3242 3.70316 14.4117 3.92113 15.4336 4.35472C16.4227 4.77191 17.311 5.37191 18.075 6.13363C18.8391 6.89535 19.4367 7.78363 19.8563 8.77035C20.2899 9.79222 20.5078 10.8774 20.5078 12C20.5078 13.1227 20.2875 14.2078 19.8563 15.2297C19.4391 16.2164 18.8391 17.1047 18.075 17.8664C17.311 18.6282 16.4227 19.2282 15.4336 19.6453C14.4109 20.0773 13.3117 20.2989 12.2016 20.2969C11.0789 20.2969 9.99143 20.0766 8.96955 19.6453C7.98243 19.2286 7.08543 18.6245 6.32815 17.8664C6.14299 17.6813 5.96955 17.4891 5.80314 17.2922C5.73283 17.2055 5.62502 17.1563 5.51486 17.1563H3.86721C3.71955 17.1563 3.62814 17.3203 3.71018 17.4446C5.50549 20.2313 8.63674 22.0782 12.2016 22.0782C17.7375 22.0782 22.2328 17.6227 22.2891 12.1032C22.3453 6.49457 17.843 1.93597 12.2274 1.92191ZM9.2583 14.625V12.8438H1.89893C1.7958 12.8438 1.71143 12.7594 1.71143 12.6563V11.3438C1.71143 11.2407 1.7958 11.1563 1.89893 11.1563H9.2583V9.37504C9.2583 9.218 9.44111 9.12894 9.56299 9.22738L12.8888 11.8524C12.9112 11.8699 12.9293 11.8923 12.9418 11.9179C12.9542 11.9435 12.9607 11.9716 12.9607 12C12.9607 12.0285 12.9542 12.0566 12.9418 12.0822C12.9293 12.1077 12.9112 12.1302 12.8888 12.1477L9.56299 14.7727C9.44111 14.8688 9.2583 14.7821 9.2583 14.625Z" fill="white"/>
</svg>
