<svg width="17" height="12" viewBox="0 0 17 12" fill="none" xmlns="http://www.w3.org/2000/svg">
<path d="M16.2584 1.90026L13.9953 0.304462C13.7191 0.109486 13.3493 0 12.9583 0C12.5673 0 12.1976 0.107987 11.9213 0.304462L9.48392 2.02175C9.20766 2.21672 9.05254 2.47919 9.05254 2.75516C9.05254 3.03262 9.20554 3.29209 9.48392 3.48856L11.3879 4.8339C10.9542 5.54719 10.331 6.19527 9.55192 6.74316C8.77204 7.29659 7.86041 7.73303 6.8489 8.042L4.9449 6.69666C4.66865 6.50169 4.29889 6.3922 3.90789 6.3922C3.71503 6.3917 3.52397 6.41837 3.3459 6.47065C3.16783 6.52293 3.00634 6.59977 2.87089 6.69666L0.431377 8.41395C0.155126 8.60892 0 8.87139 0 9.14736C0 9.42482 0.153001 9.68429 0.431377 9.88076L2.69239 11.4766C3.16414 11.8095 3.81439 12 4.48164 12C4.61977 12 4.75365 11.9925 4.88965 11.976C7.70316 11.649 10.4954 10.5917 12.7501 9.00187C15.0026 7.40907 16.4986 5.43832 16.9661 3.45107C17.0999 2.88714 16.8322 2.30671 16.2584 1.90026ZM15.4594 3.27259C15.0451 5.04087 13.6978 6.80465 11.6684 8.23697C9.63904 9.66929 7.14216 10.6202 4.63677 10.9126C4.32227 10.9501 3.99927 10.8751 3.76977 10.7147L1.54913 9.14736L3.90364 7.48406L6.4494 9.28384L6.46853 9.29734L6.92753 9.17735C8.31926 8.81621 9.58308 8.24579 10.6314 7.50563C11.6797 6.76548 12.4875 5.87328 12.9987 4.89089L13.1687 4.56693L10.6017 2.75666L12.9562 1.09336L15.1768 2.66067C15.4063 2.82265 15.5126 3.05062 15.4594 3.27259Z" fill="white"/>
</svg>
