<svg width="17" height="10" viewBox="0 0 17 10" fill="none" xmlns="http://www.w3.org/2000/svg">
<path d="M16.3929 0H0.607143C0.271317 0 0 0.203125 0 0.454545V9.54545C0 9.79688 0.271317 10 0.607143 10H16.3929C16.7287 10 17 9.79688 17 9.54545V0.454545C17 0.203125 16.7287 0 16.3929 0ZM15.6339 1.57386V8.97727H1.36607V1.57386L0.842411 1.26847L1.58806 0.551136L2.40011 1.02415H14.6018L15.4138 0.551136L16.1595 1.26847L15.6339 1.57386ZM14.6018 1.02273L8.5 4.57386L2.39821 1.02273L1.58616 0.549716L0.840513 1.26705L1.36417 1.57244L7.84542 5.34517C8.03182 5.45358 8.26112 5.51243 8.49715 5.51243C8.73318 5.51243 8.96249 5.45358 9.14888 5.34517L15.6339 1.57386L16.1576 1.26847L15.4119 0.551136L14.6018 1.02273Z" fill="white"/>
</svg>
