<svg width="27" height="27" viewBox="0 0 27 27" fill="none" xmlns="http://www.w3.org/2000/svg">
<path d="M0 13.5C0 9.91958 1.42232 6.4858 3.95406 3.95406C6.4858 1.42232 9.91958 0 13.5 0C17.0804 0 20.5142 1.42232 23.0459 3.95406C25.5777 6.4858 27 9.91958 27 13.5C27 17.0804 25.5777 20.5142 23.0459 23.0459C20.5142 25.5777 17.0804 27 13.5 27C9.91958 27 6.4858 25.5777 3.95406 23.0459C1.42232 20.5142 0 17.0804 0 13.5ZM12.6562 1.81744C11.5256 2.16169 10.4034 3.20119 9.47194 4.94775C9.23062 5.4 9.00619 5.89275 8.80538 6.41925C9.99506 6.68419 11.2894 6.85294 12.6562 6.90356V1.81744ZM7.17019 5.97206C7.40981 5.32406 7.68319 4.71656 7.98187 4.15294C8.27366 3.60122 8.61062 3.07461 8.98931 2.5785C7.55269 3.17385 6.24755 4.04662 5.14856 5.14687C5.75944 5.45738 6.43613 5.73581 7.17019 5.97375V5.97206ZM5.92144 12.6562C5.98219 10.8506 6.23869 9.13444 6.65719 7.58025C5.74374 7.28813 4.85959 6.9113 4.01625 6.45469C2.67223 8.25922 1.87451 10.4117 1.71787 12.6562H5.91975H5.92144ZM8.28394 8.03081C7.88611 9.54242 7.65968 11.094 7.60894 12.6562H12.6562V8.59106C11.1206 8.54044 9.64744 8.34638 8.28394 8.03081ZM14.3438 8.58938V12.6562H19.3894C19.3392 11.0941 19.1133 9.54248 18.7161 8.03081C17.3526 8.34638 15.8794 8.53875 14.3438 8.59106V8.58938ZM7.61063 14.3438C7.66969 16.0093 7.90762 17.5736 8.28394 18.9692C9.7201 18.6433 11.1843 18.4562 12.6562 18.4106V14.3438H7.61063ZM14.3438 14.3438V18.4089C15.8794 18.4596 17.3526 18.6536 18.7161 18.9692C19.0924 17.5736 19.3303 16.0093 19.3911 14.3438H14.3438ZM8.80538 20.5808C9.00787 21.1073 9.23062 21.6 9.47194 22.0522C10.4034 23.7988 11.5273 24.8366 12.6562 25.1826V20.0981C11.2894 20.1488 9.99506 20.3175 8.80538 20.5824V20.5808ZM8.991 24.4215C8.6117 23.9255 8.27417 23.3989 7.98187 22.8471C7.67107 22.2589 7.39991 21.6506 7.17019 21.0263C6.476 21.2493 5.80011 21.5258 5.14856 21.8531C6.24755 22.9534 7.55269 23.8262 8.98931 24.4215H8.991ZM6.65719 19.4198C6.21907 17.7613 5.97166 16.0583 5.91975 14.3438H1.71787C1.87442 16.5884 2.67215 18.7408 4.01625 20.5453C4.80938 20.1099 5.69531 19.7319 6.65719 19.4198ZM18.0107 24.4215C19.4466 23.8265 20.7511 22.9543 21.8497 21.8548C21.1988 21.5275 20.5234 21.2511 19.8298 21.0279C19.6 21.6517 19.3289 22.2594 19.0181 22.8471C18.7264 23.3988 18.3895 23.9254 18.0107 24.4215ZM14.3438 20.0964V25.1826C15.4744 24.8383 16.5966 23.7988 17.5281 22.0522C17.7694 21.6 17.9938 21.1073 18.1946 20.5808C16.9283 20.3031 15.6394 20.1416 14.3438 20.0981V20.0964ZM20.3428 19.4198C21.3047 19.7319 22.1906 20.1099 22.9837 20.5453C24.3279 18.7408 25.1256 16.5884 25.2821 14.3438H21.0802C21.0283 16.0583 20.7809 17.7613 20.3428 19.4198ZM25.2821 12.6562C25.1256 10.4116 24.3279 8.25917 22.9837 6.45469C22.1906 6.89006 21.3047 7.26806 20.3428 7.58025C20.7613 9.13275 21.0178 10.8506 21.0802 12.6562H25.2821ZM19.0181 4.15294C19.3168 4.71656 19.5902 5.32406 19.8315 5.97206C20.5246 5.74888 21.1993 5.47243 21.8497 5.14519C20.751 4.04633 19.4464 3.17473 18.0107 2.58019C18.3786 3.05775 18.7161 3.58763 19.0181 4.15294ZM18.1946 6.41925C18.0029 5.91551 17.7803 5.42407 17.5281 4.94775C16.5966 3.20119 15.4744 2.16337 14.3438 1.81744V6.90188C15.7106 6.85125 17.0049 6.6825 18.1946 6.41756V6.41925Z" fill="white"/>
</svg>
